<mxfile host="65bd71144e">
    <diagram id="YJA3ccv7uTv8HLyaoleA" name="Страница 1">
        <mxGraphModel dx="1116" dy="229" grid="1" gridSize="10" guides="1" tooltips="1" connect="1" arrows="1" fold="1" page="1" pageScale="1" pageWidth="827" pageHeight="1169" math="0" shadow="0">
            <root>
                <mxCell id="0"/>
                <mxCell id="1" parent="0"/>
                <mxCell id="2" value="start" style="rounded=1;whiteSpace=wrap;html=1;" parent="1" vertex="1">
                    <mxGeometry x="240" y="10" width="100" height="30" as="geometry"/>
                </mxCell>
                <mxCell id="3" value="N&lt;br&gt;arr[ ]&lt;br&gt;arr_1[ ]&lt;br&gt;i = 0" style="shape=parallelogram;perimeter=parallelogramPerimeter;whiteSpace=wrap;html=1;fixedSize=1;" parent="1" vertex="1">
                    <mxGeometry x="230" y="60" width="120" height="70" as="geometry"/>
                </mxCell>
                <mxCell id="5" value="&lt;div&gt;Задача 2. Нарисовать блок-схему&lt;/div&gt;&lt;div&gt;Задание на «разворот» массива. Нужно перевернуть массив и&lt;/div&gt;&lt;div&gt;записать его в обратном порядке.&lt;/div&gt;" style="rounded=0;whiteSpace=wrap;html=1;" parent="1" vertex="1">
                    <mxGeometry x="-5" width="215" height="60" as="geometry"/>
                </mxCell>
                <mxCell id="7" value="&amp;nbsp; i &amp;lt; N" style="rhombus;whiteSpace=wrap;html=1;" parent="1" vertex="1">
                    <mxGeometry x="235" y="167.5" width="110" height="50" as="geometry"/>
                </mxCell>
                <mxCell id="8" value="" style="whiteSpace=wrap;html=1;aspect=fixed;" parent="1" vertex="1">
                    <mxGeometry x="370" y="10" width="30" height="30" as="geometry"/>
                </mxCell>
                <mxCell id="9" value="" style="whiteSpace=wrap;html=1;aspect=fixed;" parent="1" vertex="1">
                    <mxGeometry x="400" y="10" width="30" height="30" as="geometry"/>
                </mxCell>
                <mxCell id="10" value="" style="whiteSpace=wrap;html=1;aspect=fixed;" parent="1" vertex="1">
                    <mxGeometry x="430" y="10" width="30" height="30" as="geometry"/>
                </mxCell>
                <mxCell id="11" value="" style="whiteSpace=wrap;html=1;aspect=fixed;" parent="1" vertex="1">
                    <mxGeometry x="460" y="10" width="30" height="30" as="geometry"/>
                </mxCell>
                <mxCell id="13" value="" style="whiteSpace=wrap;html=1;aspect=fixed;" parent="1" vertex="1">
                    <mxGeometry x="490" y="10" width="30" height="30" as="geometry"/>
                </mxCell>
                <mxCell id="14" value="arr_1[(N - 1) - i ] =&amp;nbsp; arr[ i ]&lt;br&gt;i = i + 1" style="rounded=0;whiteSpace=wrap;html=1;align=left;" parent="1" vertex="1">
                    <mxGeometry x="42.5" y="240" width="177.5" height="70" as="geometry"/>
                </mxCell>
                <mxCell id="15" value="0 4&lt;br&gt;1 3&lt;br&gt;2 2" style="whiteSpace=wrap;html=1;aspect=fixed;" parent="1" vertex="1">
                    <mxGeometry x="420" y="70" width="60" height="60" as="geometry"/>
                </mxCell>
                <mxCell id="16" value="arr1[ ]" style="shape=document;whiteSpace=wrap;html=1;boundedLbl=1;" parent="1" vertex="1">
                    <mxGeometry x="400" y="230" width="100" height="55" as="geometry"/>
                </mxCell>
                <mxCell id="17" value="finish" style="rounded=1;whiteSpace=wrap;html=1;" parent="1" vertex="1">
                    <mxGeometry x="400" y="310" width="100" height="40" as="geometry"/>
                </mxCell>
                <mxCell id="18" value="" style="endArrow=classic;html=1;entryX=0.5;entryY=1;entryDx=0;entryDy=0;" parent="1" target="14" edge="1">
                    <mxGeometry width="50" height="50" relative="1" as="geometry">
                        <mxPoint x="290" y="220" as="sourcePoint"/>
                        <mxPoint x="350" y="170" as="targetPoint"/>
                        <Array as="points">
                            <mxPoint x="290" y="350"/>
                            <mxPoint x="131" y="350"/>
                        </Array>
                    </mxGeometry>
                </mxCell>
                <mxCell id="19" value="" style="endArrow=classic;html=1;exitX=0.5;exitY=1;exitDx=0;exitDy=0;entryX=0.5;entryY=0;entryDx=0;entryDy=0;" parent="1" source="3" target="7" edge="1">
                    <mxGeometry width="50" height="50" relative="1" as="geometry">
                        <mxPoint x="300" y="220" as="sourcePoint"/>
                        <mxPoint x="350" y="170" as="targetPoint"/>
                    </mxGeometry>
                </mxCell>
                <mxCell id="20" value="" style="endArrow=classic;html=1;exitX=0.5;exitY=0;exitDx=0;exitDy=0;" parent="1" source="14" edge="1">
                    <mxGeometry width="50" height="50" relative="1" as="geometry">
                        <mxPoint x="300" y="220" as="sourcePoint"/>
                        <mxPoint x="290" y="150" as="targetPoint"/>
                        <Array as="points">
                            <mxPoint x="131" y="150"/>
                        </Array>
                    </mxGeometry>
                </mxCell>
                <mxCell id="21" value="" style="endArrow=classic;html=1;exitX=1;exitY=0.5;exitDx=0;exitDy=0;entryX=0.5;entryY=0;entryDx=0;entryDy=0;" parent="1" source="7" target="16" edge="1">
                    <mxGeometry width="50" height="50" relative="1" as="geometry">
                        <mxPoint x="300" y="220" as="sourcePoint"/>
                        <mxPoint x="350" y="170" as="targetPoint"/>
                        <Array as="points">
                            <mxPoint x="450" y="193"/>
                        </Array>
                    </mxGeometry>
                </mxCell>
                <mxCell id="22" value="" style="endArrow=classic;html=1;exitX=0.5;exitY=0.909;exitDx=0;exitDy=0;exitPerimeter=0;entryX=0.5;entryY=0;entryDx=0;entryDy=0;" parent="1" source="16" target="17" edge="1">
                    <mxGeometry width="50" height="50" relative="1" as="geometry">
                        <mxPoint x="300" y="220" as="sourcePoint"/>
                        <mxPoint x="350" y="170" as="targetPoint"/>
                    </mxGeometry>
                </mxCell>
                <mxCell id="23" value="да" style="text;html=1;strokeColor=none;fillColor=none;align=center;verticalAlign=middle;whiteSpace=wrap;rounded=0;" parent="1" vertex="1">
                    <mxGeometry x="270" y="230" width="60" height="30" as="geometry"/>
                </mxCell>
                <mxCell id="26" value="N&lt;br&gt;arr[ ]&lt;br&gt;&lt;br&gt;i = 0" style="shape=parallelogram;perimeter=parallelogramPerimeter;whiteSpace=wrap;html=1;fixedSize=1;" parent="1" vertex="1">
                    <mxGeometry x="729" y="60" width="120" height="70" as="geometry"/>
                </mxCell>
                <mxCell id="27" value="&amp;nbsp; i &amp;lt; N/2" style="rhombus;whiteSpace=wrap;html=1;" parent="1" vertex="1">
                    <mxGeometry x="734" y="167.5" width="110" height="50" as="geometry"/>
                </mxCell>
                <mxCell id="29" value="arr1[ ]" style="shape=document;whiteSpace=wrap;html=1;boundedLbl=1;" parent="1" vertex="1">
                    <mxGeometry x="899" y="230" width="100" height="55" as="geometry"/>
                </mxCell>
                <mxCell id="30" value="finish" style="rounded=1;whiteSpace=wrap;html=1;" parent="1" vertex="1">
                    <mxGeometry x="899" y="310" width="100" height="40" as="geometry"/>
                </mxCell>
                <mxCell id="31" value="" style="endArrow=classic;html=1;entryX=0.5;entryY=1;entryDx=0;entryDy=0;" parent="1" edge="1">
                    <mxGeometry width="50" height="50" relative="1" as="geometry">
                        <mxPoint x="789" y="220" as="sourcePoint"/>
                        <mxPoint x="630.25" y="310" as="targetPoint"/>
                        <Array as="points">
                            <mxPoint x="789" y="350"/>
                            <mxPoint x="630" y="350"/>
                        </Array>
                    </mxGeometry>
                </mxCell>
                <mxCell id="32" value="" style="endArrow=classic;html=1;exitX=0.5;exitY=1;exitDx=0;exitDy=0;entryX=0.5;entryY=0;entryDx=0;entryDy=0;" parent="1" source="26" target="27" edge="1">
                    <mxGeometry width="50" height="50" relative="1" as="geometry">
                        <mxPoint x="799" y="220" as="sourcePoint"/>
                        <mxPoint x="849" y="170" as="targetPoint"/>
                    </mxGeometry>
                </mxCell>
                <mxCell id="33" value="" style="endArrow=classic;html=1;" parent="1" edge="1">
                    <mxGeometry width="50" height="50" relative="1" as="geometry">
                        <mxPoint x="630" y="190" as="sourcePoint"/>
                        <mxPoint x="789" y="150" as="targetPoint"/>
                        <Array as="points">
                            <mxPoint x="630" y="150"/>
                        </Array>
                    </mxGeometry>
                </mxCell>
                <mxCell id="34" value="" style="endArrow=classic;html=1;exitX=1;exitY=0.5;exitDx=0;exitDy=0;entryX=0.5;entryY=0;entryDx=0;entryDy=0;" parent="1" source="27" target="29" edge="1">
                    <mxGeometry width="50" height="50" relative="1" as="geometry">
                        <mxPoint x="799" y="220" as="sourcePoint"/>
                        <mxPoint x="849" y="170" as="targetPoint"/>
                        <Array as="points">
                            <mxPoint x="949" y="193"/>
                        </Array>
                    </mxGeometry>
                </mxCell>
                <mxCell id="35" value="" style="endArrow=classic;html=1;exitX=0.5;exitY=0.909;exitDx=0;exitDy=0;exitPerimeter=0;entryX=0.5;entryY=0;entryDx=0;entryDy=0;" parent="1" source="29" target="30" edge="1">
                    <mxGeometry width="50" height="50" relative="1" as="geometry">
                        <mxPoint x="799" y="220" as="sourcePoint"/>
                        <mxPoint x="849" y="170" as="targetPoint"/>
                    </mxGeometry>
                </mxCell>
                <mxCell id="36" value="да" style="text;html=1;strokeColor=none;fillColor=none;align=center;verticalAlign=middle;whiteSpace=wrap;rounded=0;" parent="1" vertex="1">
                    <mxGeometry x="769" y="230" width="60" height="30" as="geometry"/>
                </mxCell>
                <mxCell id="37" value="start" style="rounded=1;whiteSpace=wrap;html=1;" parent="1" vertex="1">
                    <mxGeometry x="739" y="10" width="100" height="30" as="geometry"/>
                </mxCell>
                <mxCell id="38" value="tmp = arr[(N - 1) - i ]&amp;nbsp;&lt;br&gt;&lt;br&gt;arr[(N - 1) - i ] = arr[ i ]&lt;br&gt;&lt;br&gt;arr[ i ] = tmp&amp;nbsp;&lt;br&gt;&amp;nbsp;&lt;br&gt;i = i + 1" style="rounded=0;whiteSpace=wrap;html=1;" parent="1" vertex="1">
                    <mxGeometry x="540" y="190" width="177.5" height="120" as="geometry"/>
                </mxCell>
                <mxCell id="39" value="" style="endArrow=classic;html=1;exitX=0.5;exitY=1;exitDx=0;exitDy=0;entryX=0.5;entryY=0;entryDx=0;entryDy=0;" parent="1" source="2" target="3" edge="1">
                    <mxGeometry width="50" height="50" relative="1" as="geometry">
                        <mxPoint x="490" y="170" as="sourcePoint"/>
                        <mxPoint x="540" y="120" as="targetPoint"/>
                    </mxGeometry>
                </mxCell>
                <mxCell id="40" value="" style="endArrow=classic;html=1;exitX=0.5;exitY=1;exitDx=0;exitDy=0;entryX=0.5;entryY=0;entryDx=0;entryDy=0;" parent="1" source="37" target="26" edge="1">
                    <mxGeometry width="50" height="50" relative="1" as="geometry">
                        <mxPoint x="490" y="170" as="sourcePoint"/>
                        <mxPoint x="540" y="120" as="targetPoint"/>
                    </mxGeometry>
                </mxCell>
                <mxCell id="41" value="а можно использовать два счетчика &lt;br&gt;1 - (ш - 1)&lt;br&gt;2 - (л + 1)&lt;br&gt;один считает от конца, а другой от начала" style="text;html=1;strokeColor=none;fillColor=none;align=center;verticalAlign=middle;whiteSpace=wrap;rounded=0;" parent="1" vertex="1">
                    <mxGeometry x="540" y="10" width="140" height="120" as="geometry"/>
                </mxCell>
                <mxCell id="42" value="arr_1[(N - 1)] =&amp;nbsp; arr[ i ]&lt;br&gt;N = N - 1&lt;br&gt;i = i + 1" style="rounded=0;whiteSpace=wrap;html=1;align=left;" vertex="1" parent="1">
                    <mxGeometry x="-160" y="240" width="177.5" height="70" as="geometry"/>
                </mxCell>
                <mxCell id="44" style="edgeStyle=none;html=1;exitX=0.5;exitY=0;exitDx=0;exitDy=0;" edge="1" parent="1" source="43">
                    <mxGeometry relative="1" as="geometry">
                        <mxPoint x="-71" y="130" as="targetPoint"/>
                    </mxGeometry>
                </mxCell>
                <mxCell id="43" value="&lt;div style=&quot;background-color: rgb(30 , 30 , 30) ; line-height: 19px&quot;&gt;&lt;div style=&quot;color: rgb(212 , 212 , 212) ; font-family: &amp;#34;consolas&amp;#34; , &amp;#34;courier new&amp;#34; , monospace ; font-size: 14px&quot;&gt;&lt;span style=&quot;color: #6a9955&quot;&gt;# list assignment index out of range&lt;/span&gt;&lt;/div&gt;&lt;div style=&quot;color: rgb(212 , 212 , 212) ; font-family: &amp;#34;consolas&amp;#34; , &amp;#34;courier new&amp;#34; , monospace ; font-size: 14px&quot;&gt;&amp;nbsp; &lt;span style=&quot;color: rgb(106 , 153 , 85)&quot;&gt;индекс назначения списка вне диапазона&lt;/span&gt;&lt;/div&gt;&lt;div&gt;&lt;font color=&quot;#6a9955&quot; face=&quot;consolas, courier new, monospace&quot;&gt;&lt;span style=&quot;font-size: 14px&quot;&gt;https://pythobyte.com/python-list-index-out-of-range-85896/https://pythobyte.com/python-list-index-out-of-range-85896/&lt;/span&gt;&lt;/font&gt;&lt;br&gt;&lt;/div&gt;&lt;/div&gt;" style="whiteSpace=wrap;html=1;" vertex="1" parent="1">
                    <mxGeometry x="-256.25" y="100" width="370" height="117.5" as="geometry"/>
                </mxCell>
            </root>
        </mxGraphModel>
    </diagram>
</mxfile>